HIERARCHY
ROOT Hips
{
	OFFSET 0.000000 0.000000 0.000000
	CHANNELS 6 Xposition Yposition Zposition Zrotation Yrotation Xrotation 
	JOINT LHipJoint
	{
		OFFSET 0.000000 0.000000 0.000000
		CHANNELS 3 Zrotation Yrotation Xrotation
		JOINT LeftUpLeg
		{
			OFFSET 1.363060 -1.794630 0.839290
			CHANNELS 3 Zrotation Yrotation Xrotation
			JOINT LeftLeg
			{
				OFFSET 2.448110 -6.726130 0.000000
				CHANNELS 3 Zrotation Yrotation Xrotation
				JOINT LeftFoot
				{
					OFFSET 2.562200 -7.039590 0.000000
					CHANNELS 3 Zrotation Yrotation Xrotation
					JOINT LeftToeBase
					{
						OFFSET 0.157640 -0.433110 2.322550
						CHANNELS 3 Zrotation Yrotation Xrotation
						End Site
						{
							OFFSET 0.000000 0.000000 0.000000
						}
					}
				}
			}
		}
	}
	JOINT RHipJoint
	{
		OFFSET 0.000000 0.000000 0.000000
		CHANNELS 3 Zrotation Yrotation Xrotation
		JOINT RightUpLeg
		{
			OFFSET -1.305520 -1.794630 0.839290
			CHANNELS 3 Zrotation Yrotation Xrotation
			JOINT RightLeg
			{
				OFFSET -2.542530 -6.985550 0.000000
				CHANNELS 3 Zrotation Yrotation Xrotation
				JOINT RightFoot
				{
					OFFSET -2.568260 -7.056230 0.000000
					CHANNELS 3 Zrotation Yrotation Xrotation
					JOINT RightToeBase
					{
						OFFSET -0.164730 -0.452590 2.363150
						CHANNELS 3 Zrotation Yrotation Xrotation
						End Site
						{
							OFFSET 0.000000 0.000000 0.000000
						}
					}
				}
			}
		}
	}
	JOINT LowerBack
	{
		OFFSET 0.000000 0.000000 0.000000
		CHANNELS 3 Zrotation Yrotation Xrotation
		JOINT Spine
		{
			OFFSET 0.028270 2.035590 -0.193380
			CHANNELS 3 Zrotation Yrotation Xrotation
			JOINT Spine1
			{
				OFFSET 0.056720 2.048850 -0.042750
				CHANNELS 3 Zrotation Yrotation Xrotation
				JOINT Neck
				{
					OFFSET 0.000000 0.000000 0.000000
					CHANNELS 3 Zrotation Yrotation Xrotation
					JOINT Neck1
					{
						OFFSET -0.054170 1.746240 0.172020
						CHANNELS 3 Zrotation Yrotation Xrotation
						JOINT Head
						{
							OFFSET 0.104070 1.761360 -0.123970
							CHANNELS 3 Zrotation Yrotation Xrotation
							End Site
							{
								OFFSET 0.000000 0.000000 0.000000
							}
						}
					}
				}
				JOINT LeftShoulder
				{
					OFFSET 0.000000 0.000000 0.000000
					CHANNELS 3 Zrotation Yrotation Xrotation
					JOINT LeftArm
					{
						OFFSET 3.362410 1.200890 -0.311210
						CHANNELS 3 Zrotation Yrotation Xrotation
						JOINT LeftForeArm
						{
							OFFSET 4.983000 -0.000000 -0.000000
							CHANNELS 3 Zrotation Yrotation Xrotation
							JOINT LeftHand
							{
								OFFSET 3.483560 -0.000000 -0.000000
								CHANNELS 3 Zrotation Yrotation Xrotation
								JOINT LeftFingerBase
								{
									OFFSET 0.000000 0.000000 0.000000
									CHANNELS 3 Zrotation Yrotation Xrotation
									JOINT LeftHandIndex1
									{
										OFFSET 0.715260 -0.000000 -0.000000
										CHANNELS 3 Zrotation Yrotation Xrotation
										End Site
										{
											OFFSET 0.000000 0.000000 0.000000
										}
									}
								}
								JOINT LThumb
								{
									OFFSET 0.000000 0.000000 0.000000
									CHANNELS 3 Zrotation Yrotation Xrotation
									End Site
									{
										OFFSET 0.000000 0.000000 0.000000
									}
								}
							}
						}
					}
				}
				JOINT RightShoulder
				{
					OFFSET 0.000000 0.000000 0.000000
					CHANNELS 3 Zrotation Yrotation Xrotation
					JOINT RightArm
					{
						OFFSET -3.136600 1.374050 -0.404650
						CHANNELS 3 Zrotation Yrotation Xrotation
						JOINT RightForeArm
						{
							OFFSET -5.241900 -0.000000 -0.000000
							CHANNELS 3 Zrotation Yrotation Xrotation
							JOINT RightHand
							{
								OFFSET -3.444170 -0.000000 -0.000000
								CHANNELS 3 Zrotation Yrotation Xrotation
								JOINT RightFingerBase
								{
									OFFSET 0.000000 0.000000 0.000000
									CHANNELS 3 Zrotation Yrotation Xrotation
									JOINT RightHandIndex1
									{
										OFFSET -0.622530 -0.000000 -0.000000
										CHANNELS 3 Zrotation Yrotation Xrotation
										End Site
										{
											OFFSET 0.000000 0.000000 0.000000
										}
									}
								}
								JOINT RThumb
								{
									OFFSET 0.000000 0.000000 0.000000
									CHANNELS 3 Zrotation Yrotation Xrotation
									End Site
									{
										OFFSET 0.000000 0.000000 0.000000
									}
								}
							}
						}
					}
				}
			}
		}
	}
}
MOTION
Frames: 4
Frame Time: 0.008333
2.255846 16.893034 3.338688 -44.292325 -53.400675 37.409685 -14.492215 -3.895146 -3.402589 13.183448 -12.953254 -5.649828 0.250496 2.984199 37.058054 1.285404 6.075196 -16.424188 -0.985301 0.000000 -43.045600 3.659751 6.254650 2.836181 -6.086222 -16.679271 -86.974510 1.716783 1.696064 -0.521473 -4.230376 -17.563538 -8.607270 -1.267301 0.000000 -51.903600 7.429923 -4.426888 7.127479 0.911308 -4.715492 -1.462573 -5.839843 -4.697740 -0.830859 6.512628 -14.721380 -3.053048 -0.256499 -0.081212 1.013560 0.000000 0.000000 0.000000 14.160085 1.905167 -1.075621 -30.145134 -0.265645 40.922566 179.875923 -80.479562 179.996452 -9.558951 -8.853508 0.800845 0.383056 0.378003 -0.000000 0.000000 0.000000 0.000000 0.000000 0.000000 0.000000 -1.707427 -12.302749 -0.956806 58.215992 -28.063059 38.588619 0.556543 67.981762 -0.004472 2.040706 5.491314 0.101250 -0.058121 -0.039189 -0.000000 0.000000 0.000000 0.000000 0.000000 0.000000 0.000000 
2.257546 16.916672 3.324326 -43.720575 -52.063586 34.920992 -14.461107 -3.713754 -3.328882 13.063623 -14.097987 -2.906407 0.217934 3.057439 35.614532 1.272140 5.898271 -15.965502 -0.907900 -0.000000 -43.555001 3.489275 6.690494 1.711270 -5.264644 -18.558532 -79.896864 1.367857 2.136196 -8.791175 -3.354178 -16.352084 -4.309198 -2.378100 0.000000 -51.875099 7.153214 -4.893242 8.290115 0.837096 -5.140912 -1.158457 -5.962734 -5.107299 -0.865130 6.949133 -14.986167 -2.859855 -0.368714 -0.090789 1.042566 0.000000 0.000000 0.000000 14.304948 1.750101 -1.190321 -29.949547 -0.413704 41.510188 179.821779 -80.432693 179.994032 -9.624962 -8.982016 0.818592 0.396266 0.381506 -0.000000 0.000000 0.000000 0.000000 0.000000 0.000000 0.000000 -0.707974 -12.932137 -1.162732 58.222293 -28.725509 38.661165 0.557317 67.470871 -0.005469 2.349998 5.557096 0.117870 -0.066984 -0.036142 -0.000000 0.000000 0.000000 0.000000 0.000000 0.000000 0.000000 
2.252977 16.943870 3.316320 -43.205301 -50.732277 32.695362 -14.457161 -3.530251 -3.243981 12.938169 -15.434390 -0.251124 0.163740 3.134923 34.051543 1.271726 5.791786 -15.452890 -0.834200 0.000000 -44.129800 3.328911 6.862811 0.859505 -1.879911 -21.010274 -81.820314 2.211390 1.475504 -3.081539 -1.197483 -11.317068 -6.828024 -2.344199 0.000000 -53.925300 6.900150 -5.303523 9.224228 0.740510 -5.532229 -0.950206 -6.078385 -5.485272 -0.907527 7.343135 -15.275961 -2.684653 -0.481747 -0.100106 1.068256 0.000000 0.000000 0.000000 14.334820 1.607275 -1.280297 -29.832291 -0.707752 42.191184 179.771046 -80.595900 179.991985 -9.737774 -9.085007 0.837943 0.408150 0.383328 -0.000000 0.000000 0.000000 0.000000 0.000000 0.000000 0.000000 0.259483 -13.601558 -1.374727 58.241926 -29.528809 38.594581 0.566550 66.858014 -0.006435 2.671534 5.597893 0.134790 -0.075104 -0.032484 -0.000000 0.000000 0.000000 0.000000 0.000000 0.000000 0.000000 
2.241496 16.974140 3.312908 -43.006522 -49.417553 30.999397 -14.447438 -3.309115 -3.016745 13.098876 -16.500792 1.820327 0.137679 3.162394 32.592748 1.246606 5.549650 -14.909795 -0.743600 0.000001 -44.947601 3.146755 6.954587 0.050986 1.799461 -23.397303 -82.949792 2.970264 0.968429 0.721142 -0.250634 -6.689605 -7.714451 -1.834800 -0.000000 -56.608199 6.750591 -5.631345 9.840864 0.671814 -5.852803 -0.797944 -6.191322 -5.794728 -0.930353 7.699247 -15.593885 -2.534843 -0.593935 -0.109313 1.093558 0.000000 0.000000 0.000000 14.265339 1.462908 -1.353520 -29.787417 -1.122780 42.924444 179.730782 -80.969236 179.990454 -9.890152 -9.162822 0.858336 0.417823 0.383208 -0.000000 0.000000 0.000000 0.000000 0.000000 0.000000 0.000000 1.200309 -14.259611 -1.585283 58.293253 -30.445484 38.372799 0.585809 66.145492 -0.007253 2.989772 5.607383 0.150825 -0.081711 -0.028533 -0.000000 0.000000 0.000000 0.000000 0.000000 0.000000 0.000000 
